<svg style="display: none;" aria-hidden="true" xmlns="http://www.w3.org/2000/svg" xmlns:xlink="http://www.w3.org/1999/xlink">
<symbol viewBox="0 0 8 5" fill="none" id="svg-arrow-down"><path d="M1 1L4 4L7 1"  stroke-linecap="round" stroke-linejoin="round"/></symbol>
<symbol viewBox="0 0 18 12"  id="svg-arrow-next"><path d="M17.5303 6.53033C17.8232 6.23744 17.8232 5.76256 17.5303 5.46967L12.7574 0.6967C12.4645 0.403807 11.9896 0.403807 11.6967 0.6967C11.4038 0.989594 11.4038 1.46447 11.6967 1.75736L15.9393 6L11.6967 10.2426C11.4038 10.5355 11.4038 11.0104 11.6967 11.3033C11.9896 11.5962 12.4645 11.5962 12.7574 11.3033L17.5303 6.53033ZM-6.55671e-08 6.75L17 6.75L17 5.25L6.55671e-08 5.25L-6.55671e-08 6.75Z" /></symbol>
<symbol viewBox="0 0 18 12"  id="svg-arrow-prev"><path d="M0.469669 6.53033C0.176777 6.23744 0.176777 5.76256 0.469669 5.46967L5.24264 0.6967C5.53553 0.403807 6.01041 0.403807 6.3033 0.6967C6.59619 0.989594 6.59619 1.46447 6.3033 1.75736L2.06066 6L6.3033 10.2426C6.59619 10.5355 6.59619 11.0104 6.3033 11.3033C6.01041 11.5962 5.53553 11.5962 5.24264 11.3033L0.469669 6.53033ZM18 6.75L1 6.75L1 5.25L18 5.25L18 6.75Z" /></symbol>
<symbol viewBox="0 0 30 30" fill="none" id="svg-clock"><path d="M15 26.25C21.2132 26.25 26.25 21.2132 26.25 15C26.25 8.7868 21.2132 3.75 15 3.75C8.7868 3.75 3.75 8.7868 3.75 15C3.75 21.2132 8.7868 26.25 15 26.25Z" stroke="#2B2A28" stroke-miterlimit="10"/><path d="M15 8.4375V15H21.5625" stroke="#2B2A28" stroke-linecap="round" stroke-linejoin="round"/></symbol>
<symbol viewBox="0 0 20 18"  id="svg-filtr"><path d="M1.94543 0.5H18.0546C18.1999 0.5 18.3421 0.542205 18.4638 0.621485C18.5856 0.700766 18.6817 0.813708 18.7405 0.946585C18.7993 1.07946 18.8182 1.22655 18.7949 1.36998C18.7717 1.51341 18.7073 1.64699 18.6096 1.7545L12.4451 8.53545C12.3196 8.6735 12.25 8.85338 12.25 9.03995V14.3486C12.25 14.4721 12.2195 14.5936 12.1613 14.7025C12.103 14.8114 12.0188 14.9042 11.916 14.9726L8.91605 16.9727C8.8031 17.048 8.67183 17.0912 8.53623 17.0977C8.40064 17.1043 8.26581 17.0739 8.14613 17.0099C8.02644 16.9458 7.92638 16.8505 7.85662 16.734C7.78686 16.6176 7.75002 16.4844 7.75002 16.3486V9.03996C7.75002 8.85338 7.68048 8.67351 7.55498 8.53545L1.39048 1.7545C1.29274 1.64699 1.22834 1.51341 1.20509 1.36998C1.18185 1.22655 1.20077 1.07946 1.25955 0.946585C1.31833 0.813708 1.41444 0.700766 1.5362 0.621485C1.65797 0.542205 1.80014 0.5 1.94543 0.5V0.5Z"  stroke-linecap="round" stroke-linejoin="round"/></symbol>
<symbol viewBox="0 0 21 15" fill="none" id="svg-flag-ru"><mask id="fa" style="mask-type:alpha" maskUnits="userSpaceOnUse" x="0" y="0" width="21" height="15"><path d="M19 0H2C0.89543 0 0 0.89543 0 2V13C0 14.1046 0.89543 15 2 15H19C20.1046 15 21 14.1046 21 13V2C21 0.89543 20.1046 0 19 0Z" fill="#fff"/></mask><g mask="url(#fa)"><path d="M19 0H2C0.89543 0 0 0.89543 0 2V13C0 14.1046 0.89543 15 2 15H19C20.1046 15 21 14.1046 21 13V2C21 0.89543 20.1046 0 19 0Z" fill="#0034A9"/><path fill-rule="evenodd" clip-rule="evenodd" d="M0 10H21V15H0V10Z" fill="#D7280F"/><path fill-rule="evenodd" clip-rule="evenodd" d="M0 0H21V5H0V0Z" fill="#fff"/></g></symbol>
<symbol id="svg-flag-ukr" xmlns="http://www.w3.org/2000/svg" viewBox="0 0 3 2">
  <path fill="#0057b7" d="M0 0h3v1H0z"/>
  <path fill="gold" d="M0 1h3v1H0z"/></symbol>
<symbol viewBox="0 0 55 55" fill="none" id="svg-flor"><path d="M52.9165 32.2116C53.0685 32.3636 53.2747 32.449 53.4897 32.449C53.7047 32.449 53.9109 32.3636 54.063 32.2116C54.215 32.0595 54.3004 31.8533 54.3004 31.6383V29.379C54.3004 29.164 54.215 28.9578 54.063 28.8057C53.9109 28.6537 53.7047 28.5683 53.4897 28.5683C53.2747 28.5683 53.0685 28.6537 52.9165 28.8057C52.7644 28.9578 52.679 29.164 52.679 29.379V31.6383C52.679 31.8533 52.7644 32.0595 52.9165 32.2116Z" fill="#CB8734" stroke="#CB8734" stroke-width=".1"/><path d="M4.04286 54.175H51.2071C52.0274 54.175 52.8141 53.8491 53.3941 53.2691C53.9741 52.6891 54.3 51.9024 54.3 51.0821V36.9633C54.3 36.7483 54.2146 36.5421 54.0625 36.39C53.9105 36.238 53.7043 36.1526 53.4893 36.1526C53.2743 36.1526 53.0681 36.238 52.916 36.39C52.764 36.5421 52.6786 36.7483 52.6786 36.9633V51.0821C52.6786 51.4724 52.5235 51.8467 52.2476 52.1226C51.9717 52.3985 51.5974 52.5536 51.2071 52.5536H4.04286C3.65261 52.5536 3.27835 52.3985 3.0024 52.1226C2.72645 51.8467 2.57143 51.4724 2.57143 51.0821V3.91786C2.57143 3.52761 2.72645 3.15335 3.0024 2.8774C3.27835 2.60145 3.65261 2.44643 4.04286 2.44643H51.2071C51.5974 2.44643 51.9717 2.60145 52.2476 2.8774C52.5235 3.15335 52.6786 3.52761 52.6786 3.91786V16.5153C52.6786 16.7303 52.764 16.9365 52.916 17.0885C53.0681 17.2406 53.2743 17.326 53.4893 17.326C53.7043 17.326 53.9105 17.2406 54.0625 17.0885C54.2146 16.9365 54.3 16.7303 54.3 16.5153V3.91786C54.3 3.09758 53.9741 2.3109 53.3941 1.73088C52.8141 1.15085 52.0274 0.825 51.2071 0.825H4.04286C3.22258 0.825 2.4359 1.15085 1.85588 1.73088C1.27585 2.3109 0.95 3.09758 0.95 3.91786V51.0821C0.95 51.9024 1.27585 52.6891 1.85588 53.2691C2.4359 53.8491 3.22258 54.175 4.04286 54.175Z" fill="#CB8734" stroke="#CB8734" stroke-width=".1"/><path d="M52.9165 24.6274C53.0685 24.7794 53.2747 24.8648 53.4897 24.8648C53.7047 24.8648 53.9109 24.7794 54.063 24.6274C54.215 24.4753 54.3004 24.2691 54.3004 24.0541V21.8404C54.3004 21.6254 54.215 21.4192 54.063 21.2672C53.9109 21.1151 53.7047 21.0297 53.4897 21.0297C53.2747 21.0297 53.0685 21.1151 52.9165 21.2672C52.7644 21.4192 52.679 21.6254 52.679 21.8404V24.0541C52.679 24.2691 52.7644 24.4753 52.9165 24.6274Z" fill="#CB8734" stroke="#CB8734" stroke-width=".1"/><mask id="ha" maskUnits="userSpaceOnUse" x="28.429" y="15.522" width="24.042" height="24.042" fill="#000"><path fill="#fff" d="M28.429 15.522H52.471000000000004V39.564H28.429z"/><path fill-rule="evenodd" clip-rule="evenodd" d="M45.3688 23.8192C45.5706 23.8192 45.7641 23.739 45.9067 23.5964C46.0494 23.4537 46.1295 23.2602 46.1295 23.0585C46.1295 22.8567 46.0494 22.6632 45.9067 22.5206L40.9241 17.5379C40.7814 17.3953 40.5879 17.3151 40.3862 17.3151C40.1844 17.3151 39.9909 17.3953 39.8483 17.5379L34.8657 22.5206C34.723 22.6632 34.6429 22.8567 34.6429 23.0585C34.6429 23.2602 34.723 23.4537 34.8657 23.5964C35.0083 23.739 35.2018 23.8192 35.4036 23.8192C35.6053 23.8192 35.7988 23.739 35.9415 23.5964L39.6258 19.9121L39.6258 37.0105C39.6258 37.161 39.6705 37.308 39.754 37.4331C39.8376 37.5582 39.9564 37.6556 40.0954 37.7132C40.2344 37.7708 40.3873 37.7859 40.5348 37.7565C40.6824 37.7272 40.8179 37.6548 40.9243 37.5484C41.0669 37.4058 41.147 37.2123 41.147 37.0105L41.147 19.9125L44.8309 23.5964C44.9736 23.739 45.1671 23.8192 45.3688 23.8192Z"/></mask><path fill-rule="evenodd" clip-rule="evenodd" d="M45.3688 23.8192C45.5706 23.8192 45.7641 23.739 45.9067 23.5964C46.0494 23.4537 46.1295 23.2602 46.1295 23.0585C46.1295 22.8567 46.0494 22.6632 45.9067 22.5206L40.9241 17.5379C40.7814 17.3953 40.5879 17.3151 40.3862 17.3151C40.1844 17.3151 39.9909 17.3953 39.8483 17.5379L34.8657 22.5206C34.723 22.6632 34.6429 22.8567 34.6429 23.0585C34.6429 23.2602 34.723 23.4537 34.8657 23.5964C35.0083 23.739 35.2018 23.8192 35.4036 23.8192C35.6053 23.8192 35.7988 23.739 35.9415 23.5964L39.6258 19.9121L39.6258 37.0105C39.6258 37.161 39.6705 37.308 39.754 37.4331C39.8376 37.5582 39.9564 37.6556 40.0954 37.7132C40.2344 37.7708 40.3873 37.7859 40.5348 37.7565C40.6824 37.7272 40.8179 37.6548 40.9243 37.5484C41.0669 37.4058 41.147 37.2123 41.147 37.0105L41.147 19.9125L44.8309 23.5964C44.9736 23.739 45.1671 23.8192 45.3688 23.8192Z" fill="#CB8734"/><path d="M45.9067 22.5206L45.9774 22.4499L45.9067 22.5206ZM40.9241 17.5379L40.8534 17.6087L40.9241 17.5379ZM40.3862 17.3151L40.3862 17.2151L40.3862 17.2151L40.3862 17.3151ZM34.6429 23.0585L34.5429 23.0585L34.6429 23.0585ZM35.4036 23.8192V23.7192V23.8192ZM39.6258 19.9121L39.7258 19.912L39.7258 19.6706L39.5551 19.8413L39.6258 19.9121ZM39.6258 37.0105L39.5258 37.0105L39.5258 37.0105L39.6258 37.0105ZM39.754 37.4331L39.6709 37.4886L39.6709 37.4886L39.754 37.4331ZM40.0954 37.7132L40.0571 37.8056L40.0571 37.8056L40.0954 37.7132ZM40.5348 37.7565L40.5543 37.8546L40.5348 37.7565ZM40.9243 37.5484L40.995 37.6192L40.995 37.6191L40.9243 37.5484ZM41.147 37.0105L41.047 37.0105L41.047 37.0105L41.147 37.0105ZM41.147 19.9125L41.2177 19.8418L41.047 19.6711L41.047 19.9125L41.147 19.9125ZM45.836 23.5257C45.7121 23.6496 45.544 23.7192 45.3688 23.7192V23.9192C45.5971 23.9192 45.816 23.8285 45.9774 23.6671L45.836 23.5257ZM46.0295 23.0585C46.0295 23.2337 45.9599 23.4018 45.836 23.5257L45.9774 23.6671C46.1388 23.5057 46.2295 23.2868 46.2295 23.0585H46.0295ZM45.836 22.5913C45.9599 22.7152 46.0295 22.8832 46.0295 23.0585H46.2295C46.2295 22.8302 46.1388 22.6113 45.9774 22.4499L45.836 22.5913ZM40.8534 17.6087L45.836 22.5913L45.9774 22.4499L40.9948 17.4672L40.8534 17.6087ZM40.3862 17.4151C40.5614 17.4151 40.7295 17.4847 40.8534 17.6087L40.9948 17.4672C40.8334 17.3058 40.6145 17.2151 40.3862 17.2151L40.3862 17.4151ZM39.919 17.6087C40.0429 17.4847 40.211 17.4151 40.3862 17.4151L40.3862 17.2151C40.1579 17.2151 39.939 17.3058 39.7776 17.4672L39.919 17.6087ZM34.9364 22.5913L39.919 17.6087L39.7776 17.4672L34.7949 22.4499L34.9364 22.5913ZM34.7429 23.0585C34.7429 22.8832 34.8125 22.7152 34.9364 22.5913L34.7949 22.4499C34.6335 22.6113 34.5429 22.8302 34.5429 23.0585L34.7429 23.0585ZM34.9364 23.5257C34.8125 23.4018 34.7429 23.2337 34.7429 23.0585L34.5429 23.0585C34.5429 23.2868 34.6335 23.5057 34.7949 23.6671L34.9364 23.5257ZM35.4036 23.7192C35.2283 23.7192 35.0603 23.6496 34.9364 23.5257L34.7949 23.6671C34.9564 23.8285 35.1753 23.9192 35.4036 23.9192V23.7192ZM35.8708 23.5257C35.7469 23.6496 35.5788 23.7192 35.4036 23.7192V23.9192C35.6318 23.9192 35.8508 23.8285 36.0122 23.6671L35.8708 23.5257ZM39.5551 19.8413L35.8708 23.5257L36.0122 23.6671L39.6965 19.9828L39.5551 19.8413ZM39.7258 37.0105L39.7258 19.912L39.5258 19.9121L39.5258 37.0105L39.7258 37.0105ZM39.8372 37.3775C39.7646 37.2689 39.7258 37.1412 39.7258 37.0105L39.5258 37.0105C39.5258 37.1808 39.5763 37.3471 39.6709 37.4886L39.8372 37.3775ZM40.1337 37.6208C40.0129 37.5708 39.9098 37.4862 39.8372 37.3775L39.6709 37.4886C39.7655 37.6302 39.8999 37.7405 40.0571 37.8056L40.1337 37.6208ZM40.5153 37.6584C40.3872 37.6839 40.2544 37.6708 40.1337 37.6208L40.0571 37.8056C40.2144 37.8707 40.3874 37.8878 40.5543 37.8546L40.5153 37.6584ZM40.8536 37.4777C40.7612 37.5701 40.6435 37.633 40.5153 37.6584L40.5543 37.8546C40.7213 37.8214 40.8746 37.7395 40.995 37.6192L40.8536 37.4777ZM41.047 37.0105C41.047 37.1858 40.9775 37.3538 40.8536 37.4777L40.995 37.6191C41.1564 37.4577 41.247 37.2388 41.247 37.0105L41.047 37.0105ZM41.047 19.9125L41.047 37.0105L41.247 37.0105L41.247 19.9125L41.047 19.9125ZM44.9016 23.5257L41.2177 19.8418L41.0763 19.9832L44.7602 23.6671L44.9016 23.5257ZM45.3688 23.7192C45.1936 23.7192 45.0255 23.6496 44.9016 23.5257L44.7602 23.6671C44.9216 23.8285 45.1405 23.9192 45.3688 23.9192V23.7192Z" fill="#CB8734" mask="url(#ha)"/></symbol>
<symbol viewBox="0 0 29 32" fill="none" id="svg-more"><path d="M5.90519 6.28976C10.588 2.05389 17.5959 1.98912 22.3435 5.85581L18.5804 5.9983C18.0947 6.01773 17.719 6.4193 17.7384 6.90507C17.7579 7.37788 18.1465 7.74706 18.6128 7.74706C18.6258 7.74706 18.6322 7.74706 18.6452 7.74706L24.4226 7.53332C24.8954 7.51389 25.2646 7.13176 25.2646 6.65894V6.59418C25.2646 6.58122 25.2646 6.57474 25.2646 6.56179V6.55531L25.0508 0.842714C25.0314 0.356949 24.6234 -0.0187096 24.1441 0.000720998C23.6583 0.0201516 23.2826 0.421718 23.3021 0.907483L23.4381 4.48919C21.087 2.56556 18.1918 1.45154 15.0959 1.2961C11.2616 1.10179 7.57622 2.41659 4.73288 4.99439C0.820848 8.53724 -0.837231 13.926 0.406329 19.0557C0.503482 19.4572 0.85971 19.7228 1.2548 19.7228C1.32604 19.7228 1.39081 19.7163 1.46206 19.6969C1.92839 19.5803 2.21985 19.1075 2.10327 18.6412C1.01515 14.1333 2.46597 9.39866 5.90519 6.28976Z" fill="#2B2A28"/><path fill-rule="evenodd" clip-rule="evenodd" d="M23.1497 6.1255L18.5924 6.29806C18.5923 6.29807 18.5925 6.29806 18.5924 6.29806C18.2701 6.31109 18.0256 6.57518 18.0382 6.89294C18.0511 7.20468 18.3072 7.44706 18.6128 7.44706H18.6397L24.4102 7.23357C24.4104 7.23357 24.4101 7.23358 24.4102 7.23357C24.7233 7.22046 24.9646 6.9695 24.9646 6.65894V6.56092L24.7511 0.854705C24.7511 0.854532 24.7511 0.854877 24.7511 0.854705C24.7379 0.533732 24.4686 0.287809 24.1562 0.300475C23.8337 0.313376 23.5891 0.577591 23.6018 0.895492L23.7631 5.14275L23.2481 4.72138C20.9472 2.83885 18.1136 1.74799 15.0808 1.59572C11.3261 1.40544 7.7186 2.69245 4.93438 5.21665C1.10383 8.6857 -0.519781 13.9621 0.697884 18.985C0.761524 19.248 0.994177 19.4228 1.2548 19.4228C1.30561 19.4228 1.34299 19.4184 1.38312 19.4075L1.38928 19.4058C1.69898 19.3284 1.88761 19.0154 1.81223 18.7139L1.81163 18.7115C0.697873 14.0974 2.18284 9.2502 5.70402 6.06721C10.4985 1.73032 17.6724 1.6645 22.5329 5.6232L23.1497 6.1255ZM25.0508 0.842714L25.2646 6.55531V6.65894C25.2646 7.13176 24.8954 7.51389 24.4226 7.53332L18.6452 7.74706H18.6128C18.1465 7.74706 17.7579 7.37788 17.7384 6.90507C17.719 6.4193 18.0947 6.01773 18.5804 5.9983L22.3435 5.85581C22.2232 5.75782 22.1014 5.66236 21.9783 5.56943M23.423 4.09231L23.3021 0.907483C23.2826 0.421718 23.6583 0.0201516 24.1441 0.000720998C24.6234 -0.0187096 25.0314 0.356949 25.0508 0.842714M23.1285 4.24301L23.1383 4.50058L23.4381 4.48919L23.6281 4.25701C23.5601 4.20145 23.4918 4.14655 23.423 4.09231M23.1285 4.24301C20.835 2.47055 18.0573 1.44478 15.0959 1.2961C11.2616 1.10179 7.57622 2.41659 4.73288 4.99439C0.820848 8.53724 -0.837231 13.926 0.406329 19.0557C0.503482 19.4572 0.85971 19.7228 1.2548 19.7228C1.32604 19.7228 1.39081 19.7163 1.46206 19.6969C1.92839 19.5803 2.21985 19.1075 2.10327 18.6412" fill="#FFFBF7"/><path d="M28.5935 12.6633C28.477 12.1969 28.0041 11.9055 27.5378 12.022C27.0715 12.1386 26.78 12.6114 26.8966 13.0778C27.9912 17.5857 26.5339 22.3203 23.0947 25.4292C20.6788 27.6119 17.6476 28.687 14.6294 28.687C11.7472 28.687 8.87146 27.709 6.55275 25.7789L10.3611 25.4356C10.8404 25.3903 11.1967 24.9693 11.1513 24.4835C11.106 23.9978 10.685 23.648 10.1992 23.6934L4.44129 24.2115C3.962 24.2569 3.60577 24.6779 3.65111 25.1636L4.16926 30.9216C4.20812 31.3749 4.59025 31.7182 5.03716 31.7182C5.06307 31.7182 5.08897 31.7182 5.11488 31.7117C5.59417 31.6664 5.9504 31.2454 5.90506 30.7596L5.59417 27.2556C7.94527 29.1598 10.8275 30.2674 13.904 30.4228C14.1501 30.4358 14.3962 30.4423 14.6359 30.4423C18.2046 30.4423 21.5985 29.1339 24.267 26.7245C28.179 23.1817 29.8371 17.7994 28.5935 12.6633Z" fill="#2B2A28"/><path fill-rule="evenodd" clip-rule="evenodd" d="M5.91794 27.5103C8.20762 29.2585 10.9673 30.2745 13.904 30.4228C14.1501 30.4358 14.3962 30.4423 14.6359 30.4423C18.2046 30.4423 21.5985 29.1339 24.267 26.7245C28.179 23.1817 29.8371 17.7994 28.5935 12.6633C28.477 12.1969 28.0041 11.9055 27.5378 12.022C27.0715 12.1386 26.78 12.6114 26.8966 13.0778C27.9912 17.5857 26.5339 22.3203 23.0947 25.4292C20.6788 27.6119 17.6476 28.687 14.6294 28.687C11.8853 28.687 9.14701 27.8005 6.88977 26.0498C6.77619 25.9617 6.66383 25.8714 6.55275 25.7789L10.3611 25.4356C10.8404 25.3903 11.1967 24.9693 11.1513 24.4835C11.106 23.9978 10.685 23.648 10.1992 23.6934L4.44129 24.2115C3.962 24.2569 3.60577 24.6779 3.65111 25.1636L4.16926 30.9216C4.20812 31.3749 4.59025 31.7182 5.03716 31.7182C5.06307 31.7182 5.08897 31.7182 5.11488 31.7117C5.59417 31.6664 5.9504 31.2454 5.90506 30.7596L5.59417 27.2556C5.70101 27.3422 5.80894 27.4271 5.91794 27.5103ZM4.46893 24.5102C4.46873 24.5103 4.46913 24.5102 4.46893 24.5102C4.15252 24.5405 3.92008 24.8172 3.94981 25.1357L4.46816 30.8959C4.49357 31.1924 4.74422 31.4182 5.03716 31.4182L5.0519 31.4181L5.06409 31.4152L5.08663 31.4131C5.40334 31.3831 5.6361 31.1062 5.60636 30.7875L5.60623 30.7861L5.23277 26.5769L5.78298 27.0225C8.08445 28.8865 10.9058 29.971 13.9191 30.1232C14.1601 30.1359 14.4016 30.1423 14.6359 30.1423C18.1299 30.1423 21.4522 28.8618 24.0659 26.5019C27.8959 23.0331 29.5194 17.764 28.3023 12.7351C28.2244 12.4259 27.9118 12.2378 27.6106 12.3131C27.3009 12.3905 27.1123 12.7035 27.1876 13.005L27.1881 13.007C28.3087 17.6218 26.8168 22.469 23.2958 25.6517C20.8227 27.8862 17.7189 28.987 14.6294 28.987C11.6797 28.987 8.73542 27.9861 6.36082 26.0095L5.80313 25.5453L10.3329 25.137C10.3331 25.137 10.3327 25.137 10.3329 25.137C10.6493 25.1067 10.8824 24.8299 10.8526 24.5114C10.8227 24.1903 10.5476 23.9622 10.2271 23.9921L4.46893 24.5102Z" fill="#FFFBF7"/></symbol>
<symbol viewBox="0 0 18 18" fill="none" id="svg-phone"><path d="M5.94718 8.72628C6.66032 10.1842 7.84213 11.3607 9.30333 12.0672C9.41024 12.1178 9.52849 12.1398 9.64646 12.1309C9.76443 12.1219 9.87804 12.0824 9.97611 12.0163L12.1276 10.5816C12.2228 10.5182 12.3322 10.4795 12.4461 10.469C12.56 10.4585 12.6747 10.4766 12.7798 10.5217L16.8049 12.2467C16.9416 12.3048 17.0558 12.4057 17.1302 12.5343C17.2045 12.6629 17.2351 12.8122 17.2173 12.9597C17.09 13.9552 16.6043 14.8702 15.851 15.5334C15.0978 16.1966 14.1286 16.5624 13.125 16.5625C10.0253 16.5625 7.05252 15.3311 4.86069 13.1393C2.66886 10.9475 1.4375 7.97469 1.4375 4.87497C1.43755 3.87137 1.80342 2.9022 2.46659 2.14893C3.12975 1.39566 4.04475 0.909935 5.04026 0.782714C5.18774 0.764866 5.33703 0.795432 5.46562 0.869805C5.59422 0.944178 5.69517 1.05833 5.75325 1.19506L7.47978 5.22363C7.52444 5.32783 7.54264 5.44146 7.53275 5.5544C7.52287 5.66733 7.4852 5.77607 7.42312 5.87093L5.99343 8.05544C5.92836 8.15371 5.88989 8.26718 5.88179 8.38476C5.87368 8.50234 5.89621 8.62001 5.94718 8.72628V8.72628Z" stroke="#CB8734" stroke-linecap="round" stroke-linejoin="round"/></symbol>
<symbol viewBox="0 0 12 16" fill="none" id="svg-play"><path d="M10.4096 6.53089C11.2668 7.32274 11.2668 8.67726 10.4096 9.46911L4.1071 15.2911C2.82614 16.4744 0.75 15.5659 0.75 13.822L0.750001 2.17796C0.750001 0.434097 2.82614 -0.474446 4.1071 0.708854L10.4096 6.53089Z" fill="#fff"/></symbol>
<symbol viewBox="0 0 26 26"  id="svg-search"><path d="M11.7812 20.3125C16.4929 20.3125 20.3125 16.4929 20.3125 11.7812 20.3125 7.06957 16.4929 3.25 11.7812 3.25 7.06957 3.25 3.25 7.06957 3.25 11.7812 3.25 16.4929 7.06957 20.3125 11.7812 20.3125zM17.8135 17.8141L22.7495 22.7501"  stroke-linecap="round" stroke-linejoin="round"/></symbol>
<symbol viewBox="0 0 26 26" fill="none" id="svg-size"><path d="M24.3793 15.143C24.4529 15.2166 24.5529 15.258 24.6571 15.258C24.7613 15.258 24.8612 15.2166 24.9349 15.143C25.0085 15.0693 25.0499 14.9694 25.0499 14.8652V13.8469C25.0499 13.7427 25.0085 13.6428 24.9349 13.5691C24.8612 13.4954 24.7613 13.454 24.6571 13.454C24.5529 13.454 24.4529 13.4954 24.3793 13.5691C24.3056 13.6428 24.2642 13.7427 24.2642 13.8469V14.8652C24.2642 14.9694 24.3056 15.0693 24.3793 15.143Z"  stroke-width=".1"/><path d="M2.37143 25.05H23.6286C24.0056 25.05 24.3671 24.9002 24.6337 24.6337C24.9002 24.3671 25.05 24.0056 25.05 23.6286V17.2651C25.05 17.161 25.0086 17.061 24.9349 16.9874C24.8613 16.9137 24.7613 16.8723 24.6571 16.8723C24.5529 16.8723 24.453 16.9137 24.3794 16.9874C24.3057 17.061 24.2643 17.161 24.2643 17.2651V23.6286C24.2643 23.7972 24.1973 23.9589 24.0781 24.0781C23.9589 24.1973 23.7972 24.2643 23.6286 24.2643H2.37143C2.20283 24.2643 2.04113 24.1973 1.92191 24.0781C1.80269 23.9589 1.73571 23.7972 1.73571 23.6286V2.37143C1.73571 2.20283 1.80269 2.04113 1.92191 1.92191C2.04113 1.80269 2.20283 1.73571 2.37143 1.73571H23.6286C23.7972 1.73571 23.9589 1.80269 24.0781 1.92191C24.1973 2.04113 24.2643 2.20283 24.2643 2.37143V8.04914C24.2643 8.15333 24.3057 8.25326 24.3794 8.32693C24.453 8.40061 24.553 8.442 24.6571 8.442C24.7613 8.442 24.8613 8.40061 24.9349 8.32694C25.0086 8.25326 25.05 8.15333 25.05 8.04914V2.37143C25.05 1.99444 24.9002 1.6329 24.6337 1.36633C24.3671 1.09976 24.0056 0.95 23.6286 0.95H2.37143C1.99444 0.95 1.6329 1.09976 1.36633 1.36633C1.09976 1.6329 0.95 1.99444 0.95 2.37143V23.6286C0.95 24.0056 1.09976 24.3671 1.36633 24.6337C1.6329 24.9002 1.99444 25.05 2.37143 25.05Z" fill="#CB8734" stroke="#CB8734" stroke-width=".1"/><path d="M24.3793 11.7247C24.4529 11.7984 24.5529 11.8398 24.6571 11.8398C24.7613 11.8398 24.8612 11.7984 24.9349 11.7247C25.0085 11.651 25.0499 11.5511 25.0499 11.4469V10.4492C25.0499 10.345 25.0085 10.2451 24.9349 10.1714C24.8612 10.0977 24.7613 10.0563 24.6571 10.0563C24.5529 10.0563 24.4529 10.0977 24.3793 10.1714C24.3056 10.2451 24.2642 10.345 24.2642 10.4492V11.4469C24.2642 11.5511 24.3056 11.651 24.3793 11.7247Z" fill="#CB8734" stroke="#CB8734" stroke-width=".1"/><mask id="ma" maskUnits="userSpaceOnUse" x="12.586" y="4.095" width="11.314" height="11.314" fill="#000"><path fill="#fff" d="M12.586 4.095H23.9V15.408999999999999H12.586z"/><path fill-rule="evenodd" clip-rule="evenodd" d="M20.9974 8.07343C21.0884 8.07343 21.1756 8.03731 21.2399 7.97301C21.3042 7.90872 21.3403 7.82151 21.3403 7.73058C21.3403 7.63965 21.3042 7.55244 21.2399 7.48814L18.9942 5.24245C18.9299 5.17815 18.8427 5.14203 18.7518 5.14203C18.6608 5.14203 18.5736 5.17815 18.5093 5.24245L16.2636 7.48814C16.1993 7.55244 16.1632 7.63965 16.1632 7.73058C16.1632 7.82151 16.1993 7.90872 16.2636 7.97301C16.3279 8.03731 16.4151 8.07343 16.5061 8.07343C16.597 8.07343 16.6842 8.03731 16.7485 7.97301L18.4089 6.31257L18.4089 14.0187C18.409 14.0865 18.4291 14.1528 18.4667 14.2092C18.5044 14.2656 18.5579 14.3095 18.6206 14.3355C18.6832 14.3614 18.7521 14.3682 18.8186 14.355C18.8851 14.3418 18.9462 14.3091 18.9942 14.2612C19.0585 14.1969 19.0946 14.1097 19.0946 14.0187L19.0946 6.31256L20.755 7.97301C20.8193 8.03731 20.9065 8.07343 20.9974 8.07343Z"/></mask><path fill-rule="evenodd" clip-rule="evenodd" d="M20.9974 8.07343C21.0884 8.07343 21.1756 8.03731 21.2399 7.97301C21.3042 7.90872 21.3403 7.82151 21.3403 7.73058C21.3403 7.63965 21.3042 7.55244 21.2399 7.48814L18.9942 5.24245C18.9299 5.17815 18.8427 5.14203 18.7518 5.14203C18.6608 5.14203 18.5736 5.17815 18.5093 5.24245L16.2636 7.48814C16.1993 7.55244 16.1632 7.63965 16.1632 7.73058C16.1632 7.82151 16.1993 7.90872 16.2636 7.97301C16.3279 8.03731 16.4151 8.07343 16.5061 8.07343C16.597 8.07343 16.6842 8.03731 16.7485 7.97301L18.4089 6.31257L18.4089 14.0187C18.409 14.0865 18.4291 14.1528 18.4667 14.2092C18.5044 14.2656 18.5579 14.3095 18.6206 14.3355C18.6832 14.3614 18.7521 14.3682 18.8186 14.355C18.8851 14.3418 18.9462 14.3091 18.9942 14.2612C19.0585 14.1969 19.0946 14.1097 19.0946 14.0187L19.0946 6.31256L20.755 7.97301C20.8193 8.03731 20.9065 8.07343 20.9974 8.07343Z" fill="#CB8734"/><path d="M21.3403 7.73058L21.2403 7.73058L21.2403 7.73058H21.3403ZM18.7518 5.14203V5.24203L18.7518 5.24203L18.7518 5.14203ZM16.5061 8.07343V7.97343V8.07343ZM18.4089 6.31257H18.5089L18.5089 6.07115L18.3382 6.24186L18.4089 6.31257ZM18.4089 14.0187L18.3089 14.0187L18.3089 14.0188L18.4089 14.0187ZM18.4667 14.2092L18.5499 14.1536L18.5499 14.1536L18.4667 14.2092ZM18.6206 14.3355L18.5823 14.4278L18.5823 14.4278L18.6206 14.3355ZM18.8186 14.355L18.7991 14.2569L18.7991 14.2569L18.8186 14.355ZM18.9942 14.2612L19.0649 14.3319L19.0649 14.3319L18.9942 14.2612ZM19.0946 14.0187H18.9946L18.9946 14.0188L19.0946 14.0187ZM19.0946 6.31256L19.1653 6.24185L18.9946 6.07114L18.9946 6.31256H19.0946ZM21.1692 7.9023C21.1236 7.94785 21.0619 7.97343 20.9974 7.97343V8.17343C21.1149 8.17343 21.2275 8.12678 21.3106 8.04372L21.1692 7.9023ZM21.2403 7.73058C21.2403 7.79499 21.2147 7.85676 21.1692 7.9023L21.3106 8.04372C21.3936 7.96067 21.4403 7.84803 21.4403 7.73058H21.2403ZM21.1692 7.55885C21.2147 7.6044 21.2403 7.66617 21.2403 7.73058L21.4403 7.73058C21.4403 7.61312 21.3936 7.50048 21.3106 7.41743L21.1692 7.55885ZM18.9235 5.31316L21.1692 7.55885L21.3106 7.41743L19.0649 5.17174L18.9235 5.31316ZM18.7518 5.24203C18.8162 5.24203 18.8779 5.26762 18.9235 5.31316L19.0649 5.17174C18.9819 5.08869 18.8692 5.04203 18.7518 5.04203L18.7518 5.24203ZM18.58 5.31316C18.6256 5.26762 18.6873 5.24203 18.7518 5.24203L18.7518 5.04203C18.6343 5.04203 18.5217 5.08869 18.4386 5.17174L18.58 5.31316ZM16.3343 7.55885L18.58 5.31316L18.4386 5.17174L16.1929 7.41743L16.3343 7.55885ZM16.2632 7.73058C16.2632 7.66617 16.2888 7.6044 16.3343 7.55885L16.1929 7.41743C16.1099 7.50048 16.0632 7.61312 16.0632 7.73058L16.2632 7.73058ZM16.3343 7.9023C16.2888 7.85676 16.2632 7.79499 16.2632 7.73058L16.0632 7.73058C16.0632 7.84803 16.1099 7.96067 16.1929 8.04372L16.3343 7.9023ZM16.5061 7.97343C16.4417 7.97343 16.3799 7.94785 16.3343 7.9023L16.1929 8.04372C16.276 8.12678 16.3886 8.17343 16.5061 8.17343V7.97343ZM16.6778 7.9023C16.6322 7.94785 16.5705 7.97343 16.5061 7.97343V8.17343C16.6235 8.17343 16.7362 8.12678 16.8192 8.04372L16.6778 7.9023ZM18.3382 6.24186L16.6778 7.9023L16.8192 8.04372L18.4797 6.38329L18.3382 6.24186ZM18.5089 14.0187L18.5089 6.31257H18.3089L18.3089 14.0187L18.5089 14.0187ZM18.5499 14.1536C18.5232 14.1137 18.5089 14.0668 18.5089 14.0187L18.3089 14.0188C18.309 14.1063 18.3349 14.1919 18.3836 14.2648L18.5499 14.1536ZM18.6589 14.2431C18.6145 14.2247 18.5766 14.1936 18.5499 14.1536L18.3836 14.2648C18.4322 14.3376 18.5014 14.3943 18.5823 14.4278L18.6589 14.2431ZM18.7991 14.2569C18.752 14.2663 18.7032 14.2614 18.6589 14.2431L18.5823 14.4278C18.6632 14.4614 18.7522 14.4701 18.8381 14.4531L18.7991 14.2569ZM18.9235 14.1905C18.8895 14.2244 18.8463 14.2475 18.7991 14.2569L18.8381 14.4531C18.924 14.436 19.0029 14.3938 19.0649 14.3319L18.9235 14.1905ZM18.9946 14.0188C18.9946 14.0832 18.969 14.1449 18.9235 14.1905L19.0649 14.3319C19.1479 14.2488 19.1946 14.1362 19.1946 14.0187L18.9946 14.0188ZM18.9946 6.31256L18.9946 14.0187H19.1946L19.1946 6.31256H18.9946ZM20.8257 7.9023L19.1653 6.24185L19.0238 6.38327L20.6843 8.04372L20.8257 7.9023ZM20.9974 7.97343C20.933 7.97343 20.8713 7.94785 20.8257 7.9023L20.6843 8.04372C20.7674 8.12678 20.88 8.17343 20.9974 8.17343V7.97343Z" fill="#CB8734" mask="url(#ma)"/><mask id="mb" maskUnits="userSpaceOnUse" x="3.815" y="12.586" width="11.314" height="11.314" fill="#000"><path fill="#fff" d="M3.815 12.586H15.129V23.9H3.815z"/><path fill-rule="evenodd" clip-rule="evenodd" d="M4.96577 18.9912C4.91784 18.9432 4.8852 18.8821 4.87199 18.8156L4.96577 18.9912ZM4.87199 18.8156C4.86786 18.7948 4.86568 18.7738 4.86543 18.7528L4.87199 18.8156ZM4.86543 18.7528C4.86541 18.7515 4.86541 18.7501 4.86541 18.7488L4.86543 18.7528ZM4.86541 18.7488C4.86541 18.7291 4.86709 18.7096 4.87044 18.6902L4.86541 18.7488ZM4.87044 18.6902C4.8715 18.6841 4.87273 18.678 4.87413 18.6719L4.87044 18.6902ZM4.87413 18.6719C4.87838 18.6534 4.88418 18.6353 4.89151 18.6176L4.87413 18.6719ZM4.89151 18.6176C4.89475 18.6097 4.89828 18.602 4.90207 18.5945L4.89151 18.6176ZM4.90207 18.5945C4.91853 18.5618 4.94008 18.5321 4.96582 18.5063L4.90207 18.5945ZM4.96583 18.5063L7.21152 16.2607C7.24335 16.2288 7.28115 16.2036 7.32275 16.1863C7.36434 16.1691 7.40893 16.1602 7.45395 16.1602C7.49898 16.1602 7.54356 16.1691 7.58516 16.1863C7.62676 16.2036 7.66455 16.2288 7.69639 16.2607C7.72823 16.2925 7.75348 16.3303 7.77071 16.3719C7.78794 16.4135 7.79681 16.4581 7.79681 16.5031C7.79681 16.5481 7.78794 16.5927 7.77071 16.6343C7.75348 16.6759 7.72823 16.7137 7.69639 16.7455L6.03599 18.4059L13.742 18.4059C13.8319 18.4075 13.9175 18.4443 13.9806 18.5084C14.0436 18.5725 14.0789 18.6588 14.0789 18.7487C14.0789 18.8386 14.0436 18.9249 13.9806 18.989C13.9175 19.0532 13.8319 19.09 13.742 19.0915L6.03589 19.0915L7.69639 20.752C7.76069 20.8163 7.79681 20.9035 7.79681 20.9945C7.79681 21.0854 7.76069 21.1726 7.69639 21.2369C7.63209 21.3012 7.54488 21.3373 7.45395 21.3373C7.36302 21.3373 7.27581 21.3012 7.21152 21.2369L4.96583 18.9912"/></mask><path fill-rule="evenodd" clip-rule="evenodd" d="M4.96577 18.9912C4.91784 18.9432 4.8852 18.8821 4.87199 18.8156L4.96577 18.9912ZM4.87199 18.8156C4.86786 18.7948 4.86568 18.7738 4.86543 18.7528L4.87199 18.8156ZM4.86543 18.7528C4.86541 18.7515 4.86541 18.7501 4.86541 18.7488L4.86543 18.7528ZM4.86541 18.7488C4.86541 18.7291 4.86709 18.7096 4.87044 18.6902L4.86541 18.7488ZM4.87044 18.6902C4.8715 18.6841 4.87273 18.678 4.87413 18.6719L4.87044 18.6902ZM4.87413 18.6719C4.87838 18.6534 4.88418 18.6353 4.89151 18.6176L4.87413 18.6719ZM4.89151 18.6176C4.89475 18.6097 4.89828 18.602 4.90207 18.5945L4.89151 18.6176ZM4.90207 18.5945C4.91853 18.5618 4.94008 18.5321 4.96582 18.5063L4.90207 18.5945ZM4.96583 18.5063L7.21152 16.2607C7.24335 16.2288 7.28115 16.2036 7.32275 16.1863C7.36434 16.1691 7.40893 16.1602 7.45395 16.1602C7.49898 16.1602 7.54356 16.1691 7.58516 16.1863C7.62676 16.2036 7.66455 16.2288 7.69639 16.2607C7.72823 16.2925 7.75348 16.3303 7.77071 16.3719C7.78794 16.4135 7.79681 16.4581 7.79681 16.5031C7.79681 16.5481 7.78794 16.5927 7.77071 16.6343C7.75348 16.6759 7.72823 16.7137 7.69639 16.7455L6.03599 18.4059L13.742 18.4059C13.8319 18.4075 13.9175 18.4443 13.9806 18.5084C14.0436 18.5725 14.0789 18.6588 14.0789 18.7487C14.0789 18.8386 14.0436 18.9249 13.9806 18.989C13.9175 19.0532 13.8319 19.09 13.742 19.0915L6.03589 19.0915L7.69639 20.752C7.76069 20.8163 7.79681 20.9035 7.79681 20.9945C7.79681 21.0854 7.76069 21.1726 7.69639 21.2369C7.63209 21.3012 7.54488 21.3373 7.45395 21.3373C7.36302 21.3373 7.27581 21.3012 7.21152 21.2369L4.96583 18.9912" fill="#CB8734"/><path d="M4.87199 18.8156L4.82226 18.8208L4.82327 18.8306L4.82789 18.8392L4.87199 18.8156ZM4.86543 18.7528L4.81519 18.7531L4.8157 18.758L4.86543 18.7528ZM4.86541 18.7488L4.81538 18.7445L4.81541 18.7491L4.86541 18.7488ZM4.87044 18.6902L4.82111 18.6803L4.82063 18.6859L4.87044 18.6902ZM4.87413 18.6719L4.82621 18.6566L4.82511 18.6621L4.87413 18.6719ZM4.89151 18.6176L4.84572 18.5966L4.84388 18.6023L4.89151 18.6176ZM4.90207 18.5945L4.86076 18.5646L4.85662 18.5737L4.90207 18.5945ZM5.00987 18.9676L4.91609 18.7921L4.82789 18.8392L4.92167 19.0147L5.00987 18.9676ZM4.92172 18.8104L4.91516 18.7476L4.8157 18.758L4.82226 18.8208L4.92172 18.8104ZM4.91543 18.7525L4.9154 18.7485L4.81541 18.7491L4.81543 18.7531L4.91543 18.7525ZM4.91522 18.7531L4.92026 18.6945L4.82063 18.6859L4.81559 18.7445L4.91522 18.7531ZM4.91946 18.7001L4.92314 18.6818L4.82511 18.6621L4.82143 18.6803L4.91946 18.7001ZM4.92175 18.6872L4.93913 18.6328L4.84388 18.6023L4.8265 18.6567L4.92175 18.6872ZM4.93696 18.6384L4.94753 18.6153L4.85662 18.5737L4.84605 18.5967L4.93696 18.6384ZM4.94259 18.6238L5.00634 18.5356L4.92531 18.477L4.86155 18.5652L4.94259 18.6238ZM5.01583 18.9912L5.01583 18.5063L4.91583 18.5063L4.91583 18.9912L5.01583 18.9912ZM4.87199 18.8156L4.7739 18.8351L4.7739 18.8351L4.87199 18.8156ZM4.86543 18.7528L4.76544 18.754L4.76544 18.754L4.86543 18.7528ZM4.86541 18.7488L4.76541 18.7488L4.76541 18.7488L4.86541 18.7488ZM4.87044 18.6902L4.77191 18.6731L4.77191 18.6731L4.87044 18.6902ZM4.87413 18.6719L4.97158 18.6944L4.97158 18.6944L4.87413 18.6719ZM4.89151 18.6176L4.79912 18.5793L4.79912 18.5793L4.89151 18.6176ZM4.90207 18.5945L4.99138 18.6395L4.99138 18.6395L4.90207 18.5945ZM7.32275 16.1863L7.36102 16.2787L7.32275 16.1863ZM7.45395 16.1602L7.45395 16.2602L7.45395 16.1602ZM7.58516 16.1863L7.62343 16.0939L7.62343 16.0939L7.58516 16.1863ZM7.77071 16.3719L7.8631 16.3336L7.8631 16.3336L7.77071 16.3719ZM7.77071 16.6343L7.67832 16.596L7.67832 16.596L7.77071 16.6343ZM6.03599 18.4059L5.96528 18.3352L5.79457 18.5059L6.03599 18.5059V18.4059ZM13.742 18.4059L13.7437 18.3059L13.742 18.3059L13.742 18.4059ZM14.0789 18.7487L14.1789 18.7487L14.1789 18.7487L14.0789 18.7487ZM13.742 19.0915L13.742 19.1915L13.7437 19.1915L13.742 19.0915ZM6.03589 19.0915V18.9915L5.79447 18.9915L5.96518 19.1622L6.03589 19.0915ZM7.45395 21.3373V21.2373L7.45395 21.2373L7.45395 21.3373ZM5.0365 18.9205C5.00255 18.8865 4.97943 18.8432 4.97007 18.7961L4.7739 18.8351C4.79098 18.921 4.83314 18.9999 4.89505 19.0619L5.0365 18.9205ZM4.97007 18.7961C4.96714 18.7814 4.9656 18.7665 4.96542 18.7517L4.76544 18.754C4.76576 18.7811 4.76857 18.8083 4.7739 18.8351L4.97007 18.7961ZM4.96542 18.7517C4.96541 18.7507 4.96541 18.7497 4.96541 18.7488L4.76541 18.7488C4.76541 18.7505 4.76542 18.7523 4.76544 18.754L4.96542 18.7517ZM4.96541 18.7488C4.96541 18.7349 4.9666 18.721 4.96897 18.7073L4.77191 18.6731C4.76758 18.6981 4.76541 18.7234 4.76541 18.7488L4.96541 18.7488ZM4.96897 18.7073C4.96973 18.703 4.9706 18.6986 4.97158 18.6944L4.77667 18.6495C4.77487 18.6574 4.77328 18.6652 4.77191 18.6731L4.96897 18.7073ZM4.97158 18.6944C4.9746 18.6813 4.9787 18.6684 4.98389 18.6558L4.79912 18.5793C4.78966 18.6021 4.78216 18.6256 4.77667 18.6495L4.97158 18.6944ZM4.98389 18.6558C4.98619 18.6503 4.98869 18.6448 4.99138 18.6395L4.81276 18.5495C4.80786 18.5593 4.80331 18.5692 4.79912 18.5793L4.98389 18.6558ZM4.99138 18.6395C5.00304 18.6164 5.0183 18.5953 5.03654 18.5771L4.89511 18.4356C4.86186 18.4689 4.83403 18.5073 4.81276 18.5495L4.99138 18.6395ZM5.03654 18.5771L7.28223 16.3314L7.14081 16.1899L4.89512 18.4356L5.03654 18.5771ZM7.28223 16.3314C7.30478 16.3088 7.33155 16.2909 7.36102 16.2787L7.28448 16.0939C7.23075 16.1162 7.18193 16.1488 7.14081 16.1899L7.28223 16.3314ZM7.36102 16.2787C7.39048 16.2665 7.42206 16.2602 7.45395 16.2602L7.45395 16.0602C7.3958 16.0602 7.33821 16.0717 7.28448 16.0939L7.36102 16.2787ZM7.45395 16.2602C7.48584 16.2602 7.51742 16.2665 7.54689 16.2787L7.62343 16.0939C7.5697 16.0717 7.51211 16.0602 7.45395 16.0602L7.45395 16.2602ZM7.54689 16.2787C7.57636 16.2909 7.60313 16.3088 7.62568 16.3314L7.7671 16.1899C7.72598 16.1488 7.67716 16.1162 7.62343 16.0939L7.54689 16.2787ZM7.62568 16.3314C7.64823 16.3539 7.66612 16.3807 7.67832 16.4102L7.8631 16.3336C7.84084 16.2799 7.80822 16.2311 7.7671 16.1899L7.62568 16.3314ZM7.67832 16.4102C7.69053 16.4396 7.69681 16.4712 7.69681 16.5031H7.89681C7.89681 16.4449 7.88535 16.3873 7.8631 16.3336L7.67832 16.4102ZM7.69681 16.5031C7.69681 16.535 7.69053 16.5666 7.67832 16.596L7.8631 16.6726C7.88536 16.6188 7.89681 16.5612 7.89681 16.5031H7.69681ZM7.67832 16.596C7.66612 16.6255 7.64823 16.6523 7.62568 16.6748L7.7671 16.8162C7.80822 16.7751 7.84084 16.7263 7.8631 16.6726L7.67832 16.596ZM7.62568 16.6748L5.96528 18.3352L6.1067 18.4766L7.7671 16.8162L7.62568 16.6748ZM6.03599 18.5059L13.742 18.5059L13.742 18.3059L6.03599 18.3059V18.5059ZM13.7402 18.5059C13.8039 18.507 13.8646 18.5331 13.9092 18.5785L14.0519 18.4383C13.9705 18.3555 13.8598 18.308 13.7437 18.3059L13.7402 18.5059ZM13.9092 18.5785C13.9539 18.6239 13.9789 18.685 13.9789 18.7487L14.1789 18.7487C14.1789 18.6326 14.1333 18.5211 14.0519 18.4383L13.9092 18.5785ZM13.9789 18.7487C13.9789 18.8124 13.9539 18.8735 13.9092 18.919L14.0519 19.0591C14.1333 18.9763 14.1789 18.8648 14.1789 18.7487L13.9789 18.7487ZM13.9092 18.919C13.8646 18.9644 13.8039 18.9904 13.7402 18.9915L13.7437 19.1915C13.8598 19.1895 13.9705 19.142 14.0519 19.0591L13.9092 18.919ZM13.742 18.9915L6.03589 18.9915V19.1915L13.742 19.1915V18.9915ZM5.96518 19.1622L7.62568 20.8227L7.7671 20.6813L6.1066 19.0208L5.96518 19.1622ZM7.62568 20.8227C7.67122 20.8683 7.69681 20.9301 7.69681 20.9945H7.89681C7.89681 20.877 7.85015 20.7644 7.7671 20.6813L7.62568 20.8227ZM7.69681 20.9945C7.69681 21.0589 7.67122 21.1207 7.62568 21.1662L7.7671 21.3076C7.85015 21.2246 7.89681 21.1119 7.89681 20.9945H7.69681ZM7.62568 21.1662C7.58013 21.2117 7.51836 21.2373 7.45395 21.2373V21.4373C7.57141 21.4373 7.68405 21.3907 7.7671 21.3076L7.62568 21.1662ZM7.45395 21.2373C7.38954 21.2373 7.32777 21.2117 7.28223 21.1662L7.14081 21.3076C7.22386 21.3907 7.3365 21.4373 7.45395 21.4373L7.45395 21.2373ZM7.28223 21.1662L5.03654 18.9205L4.89512 19.0619L7.14081 21.3076L7.28223 21.1662Z" fill="#CB8734" mask="url(#mb)"/></symbol>
<symbol viewBox="0 0 26 26" fill="none" id="svg-square"><path d="M24.3793 15.143C24.4529 15.2166 24.5529 15.258 24.6571 15.258C24.7613 15.258 24.8612 15.2166 24.9349 15.143C25.0085 15.0693 25.0499 14.9694 25.0499 14.8652V13.8469C25.0499 13.7427 25.0085 13.6428 24.9349 13.5691C24.8612 13.4954 24.7613 13.454 24.6571 13.454C24.5529 13.454 24.4529 13.4954 24.3793 13.5691C24.3056 13.6428 24.2642 13.7427 24.2642 13.8469V14.8652C24.2642 14.9694 24.3056 15.0693 24.3793 15.143Z"  stroke-width=".1"/><path d="M2.37143 25.05H23.6286C24.0056 25.05 24.3671 24.9002 24.6337 24.6337C24.9002 24.3671 25.05 24.0056 25.05 23.6286V17.2651C25.05 17.161 25.0086 17.061 24.9349 16.9874C24.8613 16.9137 24.7613 16.8723 24.6571 16.8723C24.5529 16.8723 24.453 16.9137 24.3794 16.9874C24.3057 17.061 24.2643 17.161 24.2643 17.2651V23.6286C24.2643 23.7972 24.1973 23.9589 24.0781 24.0781C23.9589 24.1973 23.7972 24.2643 23.6286 24.2643H2.37143C2.20283 24.2643 2.04113 24.1973 1.92191 24.0781C1.80269 23.9589 1.73571 23.7972 1.73571 23.6286V2.37143C1.73571 2.20283 1.80269 2.04113 1.92191 1.92191C2.04113 1.80269 2.20283 1.73571 2.37143 1.73571H23.6286C23.7972 1.73571 23.9589 1.80269 24.0781 1.92191C24.1973 2.04113 24.2643 2.20283 24.2643 2.37143V8.04914C24.2643 8.15333 24.3057 8.25326 24.3794 8.32693C24.453 8.40061 24.553 8.442 24.6571 8.442C24.7613 8.442 24.8613 8.40061 24.9349 8.32694C25.0086 8.25326 25.05 8.15333 25.05 8.04914V2.37143C25.05 1.99444 24.9002 1.6329 24.6337 1.36633C24.3671 1.09976 24.0056 0.95 23.6286 0.95H2.37143C1.99444 0.95 1.6329 1.09976 1.36633 1.36633C1.09976 1.6329 0.95 1.99444 0.95 2.37143V23.6286C0.95 24.0056 1.09976 24.3671 1.36633 24.6337C1.6329 24.9002 1.99444 25.05 2.37143 25.05Z" fill="#CB8734" stroke="#CB8734" stroke-width=".1"/><path d="M24.3793 11.7247C24.4529 11.7984 24.5529 11.8398 24.6571 11.8398 24.7613 11.8398 24.8612 11.7984 24.9349 11.7247 25.0085 11.651 25.0499 11.5511 25.0499 11.4469V10.4492C25.0499 10.345 25.0085 10.2451 24.9349 10.1714 24.8612 10.0977 24.7613 10.0563 24.6571 10.0563 24.5529 10.0563 24.4529 10.0977 24.3793 10.1714 24.3056 10.2451 24.2642 10.345 24.2642 10.4492V11.4469C24.2642 11.5511 24.3056 11.651 24.3793 11.7247zM14.2308 11.2137L14.2308 11.2137C14.1759 11.2687 14.1385 11.3386 14.1233 11.4148 14.1082 11.491 14.1159 11.57 14.1457 11.6418 14.1754 11.7136 14.2257 11.7749 14.2903 11.8181 14.3549 11.8612 14.4309 11.8843 14.5085 11.8843H14.5086C14.6127 11.8843 14.7127 11.8429 14.7863 11.7692 14.7863 11.7692 14.7863 11.7692 14.7863 11.7692L20.8206 5.73493 20.8206 5.73493 20.8212 5.73431C20.8928 5.66022 20.9324 5.56098 20.9315 5.45797 20.9306 5.35497 20.8893 5.25643 20.8164 5.1836 20.7436 5.11076 20.645 5.06944 20.542 5.06855 20.439 5.06765 20.3398 5.10725 20.2657 5.17881L20.2657 5.1788 20.2651 5.17942 14.2308 11.2137z" fill="#CB8734" stroke="#CB8734" stroke-width=".1"/><path d="M20.2651 8.91079C20.3388 8.98447 20.4387 9.02586 20.5429 9.02586 20.6471 9.02586 20.747 8.98447 20.8207 8.91079 20.8944 8.83712 20.9358 8.73719 20.9358 8.633V5.45711C20.9358 5.35292 20.8944 5.253 20.8207 5.17932 20.747 5.10565 20.6471 5.06426 20.5429 5.06426H17.367C17.2628 5.06426 17.1629 5.10565 17.0892 5.17932 17.0156 5.253 16.9742 5.35292 16.9742 5.45711 16.9742 5.56131 17.0156 5.66123 17.0892 5.73491 17.1629 5.80858 17.2628 5.84997 17.367 5.84997H20.1501V8.633C20.1501 8.73719 20.1914 8.83712 20.2651 8.91079zM5.17929 20.2651L5.17928 20.2651C5.12436 20.32 5.08695 20.39 5.0718 20.4662 5.05665 20.5424 5.06443 20.6214 5.09416 20.6932 5.12389 20.765 5.17423 20.8263 5.23882 20.8695 5.30341 20.9126 5.37934 20.9357 5.45703 20.9357H5.45705C5.56123 20.9357 5.66114 20.8943 5.7348 20.8206 5.7348 20.8206 5.7348 20.8206 5.7348 20.8206L11.7691 14.7863 11.7691 14.7863 11.7697 14.7857C11.8413 14.7116 11.8809 14.6124 11.88 14.5094 11.8791 14.4064 11.8377 14.3078 11.7649 14.235 11.6921 14.1621 11.5935 14.1208 11.4905 14.1199 11.3875 14.119 11.2883 14.1586 11.2142 14.2302L11.2142 14.2302 11.2136 14.2308 5.17929 20.2651z" fill="#CB8734" stroke="#CB8734" stroke-width=".1"/><path d="M5.45687 20.9357H8.63276C8.73695 20.9357 8.83687 20.8943 8.91055 20.8206C8.98422 20.747 9.02561 20.647 9.02561 20.5429C9.02561 20.4387 8.98422 20.3387 8.91055 20.2651C8.83687 20.1914 8.73695 20.15 8.63276 20.15H5.84973V17.367C5.84973 17.3154 5.83957 17.2643 5.81982 17.2166C5.80008 17.169 5.77114 17.1257 5.73466 17.0892C5.69818 17.0527 5.65487 17.0238 5.60721 17.004C5.55955 16.9843 5.50846 16.9741 5.45687 16.9741C5.40528 16.9741 5.35419 16.9843 5.30653 17.004C5.25887 17.0238 5.21556 17.0527 5.17908 17.0892C5.1426 17.1257 5.11366 17.169 5.09392 17.2166C5.07418 17.2643 5.06401 17.3154 5.06401 17.367V20.5429C5.06401 20.647 5.1054 20.747 5.17908 20.8206C5.25275 20.8943 5.35268 20.9357 5.45687 20.9357Z" fill="#CB8734" stroke="#CB8734" stroke-width=".1"/></symbol>
<symbol viewBox="0 0 30 30" fill="none" id="svg-technique"><path d="M23.9062 5.15625H6.09375C5.57598 5.15625 5.15625 5.57598 5.15625 6.09375V23.9062C5.15625 24.424 5.57598 24.8438 6.09375 24.8438H23.9062C24.424 24.8438 24.8438 24.424 24.8438 23.9062V6.09375C24.8438 5.57598 24.424 5.15625 23.9062 5.15625zM15 5.15625V24.8438M16.4058 5.15625L24.8439 13.5944M15 10.3132L24.8438 20.157M15 16.8757L22.9681 24.8438" stroke="#2B2A28" stroke-linecap="round" stroke-linejoin="round"/></symbol>
<symbol viewBox="0 0 26 26" fill="none" id="svg-telegram"><rect width="26" height="26" rx="12.974" fill="#419FD9"/><path fill-rule="evenodd" clip-rule="evenodd" d="M15.1018 17.8243C15.7806 18.1213 16.0352 17.499 16.0352 17.499L17.8314 8.47561C17.8173 7.86745 16.997 8.23518 16.997 8.23518L6.94109 12.1812C6.94109 12.1812 6.46022 12.3509 6.50265 12.6479C6.54508 12.9449 6.92695 13.0863 6.92695 13.0863L9.4586 13.9349C9.4586 13.9349 10.2223 16.4383 10.3779 16.9192C10.5193 17.3859 10.6466 17.4 10.6466 17.4C10.7881 17.4566 10.9154 17.3576 10.9154 17.3576L12.556 15.8726L15.1018 17.8243ZM15.5402 10.0738C15.5402 10.0738 15.8938 9.86164 15.8797 10.0738C15.8797 10.0738 15.9362 10.1021 15.7524 10.3001C15.5827 10.4698 11.5801 14.0622 11.0427 14.5431C11.0002 14.5714 10.972 14.6138 10.972 14.6704L10.8164 15.9998C10.7881 16.1413 10.6042 16.1554 10.5618 16.0281L9.89706 13.85C9.86878 13.7652 9.89706 13.6662 9.98192 13.6096L15.5402 10.0738Z" fill="#fff"/></symbol>
<symbol viewBox="0 0 26 26" fill="none" id="svg-viber"><rect width="26" height="26" rx="12.974" fill="#675DA9"/><path d="M17.6456 8.234C17.3318 7.94552 16.0615 7.02187 13.2298 7.00921C13.2298 7.00921 9.89203 6.80677 8.26489 8.29979C7.35895 9.20573 7.0401 10.5292 7.00721 12.1741C6.97431 13.8164 6.93129 16.8961 9.89962 17.7311H9.90215L9.89962 19.004C9.89962 19.004 9.88191 19.5202 10.221 19.624C10.631 19.7505 10.8739 19.3583 11.2661 18.9357C11.4812 18.7029 11.7773 18.3638 12.0025 18.1031C14.032 18.2727 15.5934 17.883 15.7705 17.8248C16.1804 17.6907 18.501 17.3946 18.878 14.3149C19.2677 11.1467 18.6882 9.13993 17.6456 8.234ZM17.9898 14.0922C17.6709 16.6633 15.7907 16.8252 15.4441 16.9365C15.2973 16.9846 13.9257 17.3263 12.1999 17.2124C12.1999 17.2124 10.9144 18.7636 10.5145 19.166C10.4513 19.2292 10.3779 19.2545 10.3298 19.2419C10.2615 19.2242 10.2412 19.1432 10.2438 19.0243C10.2438 18.8522 10.2539 16.9062 10.2539 16.9062C10.2514 16.9062 10.2514 16.9062 10.2539 16.9062C7.74107 16.2103 7.88784 13.5886 7.91567 12.2171C7.94351 10.8455 8.20162 9.71943 8.96838 8.9628C10.3425 7.71777 13.1792 7.9025 13.1792 7.9025C15.5731 7.91262 16.7194 8.63382 16.9852 8.87423C17.8683 9.63339 18.3188 11.4427 17.9898 14.0922Z" fill="#fff"/><path d="M14.3965 12.2652C14.313 12.2652 14.2421 12.1994 14.2371 12.1133C14.2092 11.5693 13.9537 11.3036 13.4324 11.2757C13.3438 11.2707 13.2755 11.1947 13.2805 11.1062C13.2856 11.0176 13.3615 10.9493 13.4501 10.9543C14.1384 10.9923 14.523 11.3871 14.5585 12.0956C14.5635 12.1842 14.4952 12.2601 14.4066 12.2626C14.4016 12.2652 14.399 12.2652 14.3965 12.2652Z" fill="#fff"/><path d="M15.2163 12.5385H15.2137C15.1252 12.536 15.0543 12.4626 15.0568 12.374C15.0695 11.8274 14.9126 11.3846 14.5786 11.0202C14.2471 10.6558 13.789 10.4584 13.1842 10.4154C13.0957 10.4078 13.0299 10.3319 13.0375 10.2433C13.0451 10.1547 13.121 10.0889 13.2095 10.0965C13.8928 10.1472 14.4318 10.385 14.8164 10.8051C15.2036 11.2277 15.3909 11.7566 15.3782 12.3816C15.3757 12.4702 15.3023 12.5385 15.2163 12.5385Z" fill="#fff"/><path d="M16.0565 12.8674C15.9679 12.8674 15.8971 12.7966 15.8971 12.708 15.8895 11.7287 15.6086 10.9822 15.0367 10.4229 14.4724 9.87125 13.7562 9.59036 12.9136 9.58277 12.825 9.58277 12.7542 9.50938 12.7542 9.42081 12.7542 9.33224 12.8275 9.26139 12.9136 9.26139 13.8423 9.26898 14.6318 9.58024 15.2569 10.1926 15.8844 10.805 16.2058 11.6502 16.2159 12.7029 16.2185 12.794 16.1476 12.8674 16.0565 12.8674 16.059 12.8674 16.059 12.8674 16.0565 12.8674zM13.4703 14.2465C13.4703 14.2465 13.6955 14.2668 13.817 14.1175L14.0523 13.8214C14.1662 13.6746 14.442 13.581 14.7103 13.7303 14.8596 13.8138 15.1304 13.9808 15.2974 14.1048 15.477 14.2364 15.8414 14.5401 15.844 14.5426 16.0186 14.6894 16.0591 14.9045 15.9401 15.1348 15.9401 15.1348 15.9401 15.1373 15.9401 15.1398 15.8187 15.3549 15.6542 15.5574 15.4492 15.7446 15.4467 15.7446 15.4467 15.7472 15.4441 15.7472 15.2746 15.8889 15.1076 15.9699 14.9456 15.9876 14.9254 15.9926 14.9026 15.9926 14.8722 15.9926 14.8014 15.9926 14.7305 15.9825 14.6597 15.9597L14.6546 15.9521C14.4016 15.8813 13.9815 15.7041 13.2831 15.317 12.8276 15.0664 12.4505 14.8109 12.1291 14.5553 11.9596 14.4212 11.7875 14.2719 11.6104 14.0947 11.6053 14.0897 11.5977 14.0821 11.5927 14.077 11.5876 14.0719 11.58 14.0643 11.5749 14.0593 11.5699 14.0542 11.5623 14.0466 11.5572 14.0416 11.5522 14.0365 11.5446 14.0289 11.5395 14.0239 11.3649 13.8467 11.2131 13.6746 11.079 13.5051 10.8234 13.1862 10.5678 12.8067 10.3173 12.3512 9.93008 11.6502 9.75295 11.2301 9.68209 10.9796L9.6745 10.9746C9.65172 10.9037 9.6416 10.8328 9.6416 10.762 9.6416 10.7316 9.6416 10.7088 9.64666 10.6886 9.66691 10.5241 9.74788 10.3596 9.88706 10.1901 9.88706 10.1876 9.8896 10.1876 9.8896 10.185 10.0769 9.97752 10.2793 9.81556 10.4944 9.69409 10.4944 9.69409 10.4969 9.69409 10.4995 9.69409 10.7272 9.57516 10.9423 9.61565 11.0916 9.79025 11.0916 9.79025 11.3978 10.1572 11.5294 10.3369 11.6534 10.5064 11.8204 10.7746 11.9039 10.9239 12.0532 11.1922 11.9596 11.468 11.8128 11.5819L11.5167 11.8172C11.3674 11.9387 11.3877 12.1639 11.3877 12.1639 11.3877 12.1639 11.8255 13.829 13.4703 14.2465z" fill="#fff"/></symbol>
<symbol viewBox="0 0 26 26" fill="none" id="svg-whatsApp"><rect width="26" height="26" rx="12.974" fill="#0DC143"/><path d="M17.7009 8.31824C16.5467 7.13975 14.9513 6.5 13.3218 6.5C9.8593 6.5 7.07569 9.29471 7.10964 12.6955C7.10964 13.773 7.41516 14.8168 7.92435 15.7596L7.04175 18.9583L10.3345 18.1166C11.2511 18.6216 12.2695 18.8573 13.2879 18.8573C16.7165 18.8573 19.5001 16.0626 19.5001 12.6618C19.5001 11.0119 18.8551 9.46306 17.7009 8.31824ZM13.3218 17.8135C12.4053 17.8135 11.4887 17.5778 10.708 17.1064L10.5043 17.0054L8.53539 17.5105L9.04459 15.5912L8.9088 15.3892C7.41516 12.9985 8.12803 9.83345 10.5722 8.35191C13.0163 6.87038 16.1733 7.57748 17.667 10.0018C19.1606 12.4261 18.4477 15.5575 16.0036 17.0391C15.2228 17.5441 14.2723 17.8135 13.3218 17.8135ZM16.3091 14.076L15.9357 13.9077C15.9357 13.9077 15.3926 13.672 15.0531 13.5036C15.0192 13.5036 14.9852 13.4699 14.9513 13.4699C14.8494 13.4699 14.7815 13.5036 14.7136 13.5373C14.7136 13.5373 14.6797 13.5709 14.2044 14.1097C14.1705 14.177 14.1026 14.2107 14.0347 14.2107H14.0008C13.9668 14.2107 13.8989 14.177 13.865 14.1434L13.6952 14.076C13.3218 13.9077 12.9824 13.7056 12.7108 13.4363C12.6429 13.3689 12.5411 13.3016 12.4732 13.2342C12.2355 12.9985 11.9979 12.7292 11.8282 12.4261L11.7942 12.3588C11.7603 12.3251 11.7603 12.2914 11.7264 12.2241C11.7264 12.1568 11.7264 12.0894 11.7603 12.0557C11.7603 12.0557 11.8961 11.8874 11.9979 11.7864C12.0658 11.719 12.0998 11.618 12.1677 11.5507C12.2355 11.4497 12.2695 11.315 12.2355 11.214C12.2016 11.0456 11.7942 10.1365 11.6924 9.93446C11.6245 9.83345 11.5566 9.79977 11.4548 9.7661H11.3529C11.285 9.7661 11.1832 9.7661 11.0814 9.7661C11.0135 9.7661 10.9456 9.79977 10.8777 9.79977L10.8437 9.83345C10.7759 9.86712 10.708 9.93446 10.6401 9.96813C10.5722 10.0355 10.5382 10.1028 10.4703 10.1702C10.2327 10.4732 10.0969 10.8436 10.0969 11.214C10.0969 11.4833 10.1648 11.7527 10.2667 11.9884L10.3006 12.0894C10.6061 12.7292 11.0135 13.3016 11.5566 13.8066L11.6924 13.9413C11.7942 14.0423 11.8961 14.1097 11.964 14.2107C12.6769 14.8168 13.4916 15.2545 14.4081 15.4902C14.51 15.5239 14.6457 15.5239 14.7476 15.5575C14.8494 15.5575 14.9852 15.5575 15.087 15.5575C15.2568 15.5575 15.4605 15.4902 15.5962 15.4229C15.6981 15.3555 15.766 15.3555 15.8339 15.2882L15.9018 15.2208C15.9697 15.1535 16.0375 15.1198 16.1054 15.0525C16.1733 14.9851 16.2412 14.9178 16.2752 14.8504C16.3431 14.7158 16.377 14.5474 16.411 14.3791C16.411 14.3117 16.411 14.2107 16.411 14.1434C16.411 14.1434 16.377 14.1097 16.3091 14.076Z" fill="#fff"/></symbol></svg>